<?xml version="1.0" encoding="UTF-8" standalone="no"?>
<!-- Created with Inkscape (http://www.inkscape.org/) -->

<svg
   xmlns:dc="http://purl.org/dc/elements/1.1/"
   xmlns:cc="http://creativecommons.org/ns#"
   xmlns:rdf="http://www.w3.org/1999/02/22-rdf-syntax-ns#"
   xmlns:svg="http://www.w3.org/2000/svg"
   xmlns="http://www.w3.org/2000/svg"
   xmlns:sodipodi="http://sodipodi.sourceforge.net/DTD/sodipodi-0.dtd"
   xmlns:inkscape="http://www.inkscape.org/namespaces/inkscape"
   width="800"
   height="800"
   viewBox="0 0 800.00001 800.00001"
   id="svg2"
   version="1.1"
   inkscape:version="0.91 r13725"
   sodipodi:docname="front.svg.2016_08_29_01_21_43.0.svg">
  <defs
     id="defs4" />
  <sodipodi:namedview
     id="base"
     pagecolor="#ffffff"
     bordercolor="#666666"
     borderopacity="1.0"
     inkscape:pageopacity="0.0"
     inkscape:pageshadow="2"
     inkscape:zoom="1.979899"
     inkscape:cx="584.02868"
     inkscape:cy="261.82245"
     inkscape:document-units="px"
     inkscape:current-layer="layer1"
     showgrid="false"
     units="px"
     inkscape:window-width="1855"
     inkscape:window-height="1056"
     inkscape:window-x="65"
     inkscape:window-y="24"
     inkscape:window-maximized="1"
     inkscape:snap-page="false"
     inkscape:snap-intersection-paths="true" />
  <metadata
     id="metadata7">
    <rdf:RDF>
      <cc:Work
         rdf:about="">
        <dc:format>image/svg+xml</dc:format>
        <dc:type
           rdf:resource="http://purl.org/dc/dcmitype/StillImage" />
        <dc:title />
      </cc:Work>
    </rdf:RDF>
  </metadata>
  <g
     inkscape:label="1. réteg"
     inkscape:groupmode="layer"
     id="layer1"
     transform="translate(0,-252.36216)">
    <rect
       style="fill:none;fill-opacity:1;fill-rule:evenodd;stroke:none;stroke-width:25;stroke-linecap:butt;stroke-linejoin:miter;stroke-miterlimit:4;stroke-dasharray:none;stroke-opacity:1"
       id="rect4682"
       width="791.07617"
       height="799.91595"
       x="2.6425781e-05"
       y="252.44621" />
    <circle
       style="fill:none;fill-opacity:0.94117647;fill-rule:evenodd;stroke:#ffffff;stroke-width:17.93530655;stroke-linecap:butt;stroke-linejoin:miter;stroke-miterlimit:4;stroke-dasharray:none;stroke-opacity:1"
       id="circle4299"
       cx="557.89581"
       cy="808.92303"
       r="92.829216" />
    <circle
       r="92.829216"
       cy="808.92303"
       cx="222.92706"
       id="circle4301"
       style="fill:none;fill-opacity:0.94117647;fill-rule:evenodd;stroke:#ffffff;stroke-width:17.93530655;stroke-linecap:butt;stroke-linejoin:miter;stroke-miterlimit:4;stroke-dasharray:none;stroke-opacity:1" />
    <circle
       style="fill:none;fill-opacity:0.94117647;fill-rule:evenodd;stroke:#000000;stroke-width:20;stroke-linecap:butt;stroke-linejoin:miter;stroke-miterlimit:4;stroke-dasharray:none;stroke-opacity:1"
       id="circle4303"
       cx="222.92706"
       cy="808.92303"
       r="103.51562" />
    <circle
       r="103.51562"
       cy="808.92303"
       cx="557.89581"
       id="circle4305"
       style="fill:none;fill-opacity:0.94117647;fill-rule:evenodd;stroke:#000000;stroke-width:20;stroke-linecap:butt;stroke-linejoin:miter;stroke-miterlimit:4;stroke-dasharray:none;stroke-opacity:1" />
    <path
       style="fill:#da3030;fill-opacity:1;fill-rule:evenodd;stroke:none;stroke-width:1px;stroke-linecap:butt;stroke-linejoin:miter;stroke-opacity:1"
       d="m 552.05508,815.50282 15.23438,-7.8125 -52.73438,-110.9375 -5.46875,-2.34375 -40.64126,-83.83546 -9.76562,5.07812 41.03188,81.10109 -1.5625,8.20313 z"
       id="path4309"
       inkscape:connector-curvature="0"
       sodipodi:nodetypes="ccccccccc" />
    <path
       style="fill:#333333;fill-rule:evenodd;stroke:none;stroke-width:1px;stroke-linecap:butt;stroke-linejoin:miter;stroke-opacity:1"
       d="m 369.11885,840.2539 1.75349,15.42458 57.30842,6.57967 2.06352,-6.39109 -13.94204,-6.53383 -10.92265,-8.5107 -9.49509,-8.03645 -0.35166,-2.88638 -19.32163,-3.48055 -2.22956,9.78355 z"
       id="path4455"
       inkscape:connector-curvature="0"
       sodipodi:nodetypes="ccccccccccc" />
    <path
       style="fill:#1a1a1a;fill-opacity:1;fill-rule:evenodd;stroke:none;stroke-width:1px;stroke-linecap:butt;stroke-linejoin:miter;stroke-opacity:1"
       d="m 263.10424,572.23311 58.10438,78.66486 31.18229,106.22939 14.96688,13.74296 3.38303,37.25427 19.08635,-0.11564 -5.25944,-41.68839 2.56225,-18.71054 -66.36488,-159.74218 z"
       id="path4315"
       inkscape:connector-curvature="0"
       sodipodi:nodetypes="cccccccccc" />
    <path
       style="fill:#bdc3c7;fill-opacity:1;fill-rule:evenodd;stroke:none;stroke-width:1px;stroke-linecap:butt;stroke-linejoin:miter;stroke-opacity:1"
       d="m 314.97054,640.98741 57.72864,178.9864 11.14332,-4.30501 -57.06178,-180.34784 z"
       id="path4313"
       inkscape:connector-curvature="0"
       sodipodi:nodetypes="ccccc" />
    <path
       style="fill:#da3030;fill-opacity:1;fill-rule:evenodd;stroke:none;stroke-width:1px;stroke-linecap:butt;stroke-linejoin:miter;stroke-opacity:1"
       d="m 480.9496,652.96961 -140.7246,24.8379 -4.48243,-14.16602 -12.21289,3.87891 4.65625,14.43554 -108.23242,126.96876 4.41992,6.6289 162.41211,8.28711 106.10938,-144.47851 z m 0.99024,13.70509 -102.45117,135.23437 -35.09766,-110.93359 z m -148.93555,30.21874 37.08789,114.9961 -131.35742,-5.44922 z"
       id="path4317"
       inkscape:connector-curvature="0"
       sodipodi:nodetypes="cccccccccccccccccc" />
    <circle
       style="fill:#bdc3c7;fill-opacity:1;fill-rule:evenodd;stroke:none;stroke-width:10;stroke-linecap:butt;stroke-linejoin:miter;stroke-miterlimit:4;stroke-dasharray:none;stroke-opacity:1"
       id="circle4319"
       cx="380.617"
       cy="820.08929"
       r="28.125" />
    <path
       style="fill:#000000;fill-rule:evenodd;stroke:none;stroke-width:1px;stroke-linecap:butt;stroke-linejoin:miter;stroke-opacity:1"
       d="m 245.1409,619.42649 c 2.83442,-0.9034 146.52715,-151.22593 146.52715,-151.22593 l -14.93335,-14.00139 3.37353,-2.4211 14.54457,13.96381 36.66484,-47.89292 7.45126,8.17642 -37.35551,45.84478 12.8999,11.98054 -2.38168,3.64201 -13.29147,-11.412 -22.83525,28.87173 -103.27204,101.81775 z"
       id="path4489"
       inkscape:connector-curvature="0"
       sodipodi:nodetypes="cccccccccccccc" />
    <path
       inkscape:transform-center-y="13.094605"
       inkscape:transform-center-x="-26.25868"
       style="fill:#000000;fill-opacity:1;fill-rule:evenodd;stroke:none;stroke-width:10;stroke-linecap:butt;stroke-linejoin:miter;stroke-miterlimit:4;stroke-dasharray:none;stroke-opacity:1"
       d="m 294.94388,642.13191 c 17.73027,4.29592 75.44247,-4.21248 75.44247,-4.21248 -0.81061,-4.93376 -3.29593,-8.80181 -8.15489,-11.15935 -14.07978,-0.729 -27.54353,2.72759 -43.60653,-0.13623 0,0 -21.18244,-7.84673 -30.52784,-7.33266 -9.34539,0.51408 -19.4534,0.97696 -20.54277,7.29407 -1.08936,6.31711 9.65929,11.25073 27.38956,15.54665 z"
       id="path4321"
       inkscape:connector-curvature="0"
       sodipodi:nodetypes="zccczzz" />
    <path
       style="fill:#000000;fill-opacity:1;fill-rule:evenodd;stroke:none;stroke-width:1px;stroke-linecap:butt;stroke-linejoin:miter;stroke-opacity:1"
       d="m 265.96584,540.14809 c 0,0 -14.90133,27.35777 10.19761,47.97477 25.09902,20.617 64.67197,64.43311 64.67197,64.43311 l -0.50015,70.5644 6.77428,15.7366 -2.16741,46.42411 15.36899,3.15301 7.18073,-46.82167 14.32952,-15.84166 7.20646,-96.31479 -91.48957,-110.01819 -21.94832,9.69406 z"
       id="path4323"
       inkscape:connector-curvature="0"
       sodipodi:nodetypes="csccccccccccc" />
    <path
       inkscape:connector-curvature="0"
       id="path4459"
       d="m 475.30961,613.7396 4.28131,4.55753 4.41942,-1.10486 4.55752,-4.00509 3.72889,-4.69563 -5.66238,-4.97185 z"
       style="fill:#333333;fill-rule:evenodd;stroke:none;stroke-width:1px;stroke-linecap:butt;stroke-linejoin:miter;stroke-opacity:1" />
    <path
       style="fill:#333333;fill-rule:evenodd;stroke:none;stroke-width:1px;stroke-linecap:butt;stroke-linejoin:miter;stroke-opacity:1"
       d="m 412.11965,505.99828 -18.81517,29.00695 21.04017,27.29056 18.52363,12.20553 44.47224,36.89766 8.73266,-6.55218 -39.02397,-47.48193 -15.67731,-23.68349 z"
       id="path4325"
       inkscape:connector-curvature="0"
       inkscape:transform-center-x="-23.607367"
       inkscape:transform-center-y="40.658363"
       sodipodi:nodetypes="ccccccccc" />
    <rect
       style="fill:#000000;fill-opacity:1;fill-rule:evenodd;stroke:none;stroke-width:20;stroke-linecap:butt;stroke-linejoin:miter;stroke-miterlimit:4;stroke-dasharray:none;stroke-opacity:1"
       id="rect4327"
       width="58.64613"
       height="13.623026"
       x="10.441696"
       y="765.27594"
       transform="matrix(0.8119112,-0.58378096,0.58378096,0.8119112,0,0)" />
    <path
       sodipodi:nodetypes="cccccccccc"
       inkscape:transform-center-y="18.650457"
       inkscape:transform-center-x="53.8768"
       style="fill:#000000;fill-rule:evenodd;stroke:none;stroke-width:1px;stroke-linecap:butt;stroke-linejoin:miter;stroke-opacity:1"
       d="m 297.35583,519.43992 127.45353,-27.51514 13.8923,6.21297 17.13696,26.16715 -15.03212,12.80037 10.32174,7.48603 -31.09908,20.2152 -104.39668,32.84453 -33.01529,-35.21633 z"
       id="path4329"
       inkscape:connector-curvature="0" />
    <path
       inkscape:transform-center-y="-24.13636"
       inkscape:transform-center-x="-31.541543"
       style="fill:#ffe6d5;fill-rule:evenodd;stroke:none;stroke-width:1px;stroke-linecap:butt;stroke-linejoin:miter;stroke-opacity:1"
       d="m 526.43821,499.98859 2.33294,-6.48019 0.89341,-7.26197 -50.1689,0.30463 47.57674,26.94124 z"
       id="path4331"
       inkscape:connector-curvature="0"
       sodipodi:nodetypes="cccccc" />
    <path
       inkscape:transform-center-y="-39.96536"
       inkscape:transform-center-x="-64.047803"
       style="fill:#241f1c;fill-rule:evenodd;stroke:none;stroke-width:1px;stroke-linecap:butt;stroke-linejoin:miter;stroke-opacity:1"
       d="m 528.678,492.45558 -12.4336,-3.47107 -4.69904,-3.41923 6.55857,-1.55982 11.55381,2.99113 z"
       id="path4335"
       inkscape:connector-curvature="0" />
    <path
       inkscape:transform-center-y="-30.153339"
       inkscape:transform-center-x="-63.289521"
       style="fill:#000000;fill-rule:evenodd;stroke:#000000;stroke-width:0.81132072px;stroke-linecap:butt;stroke-linejoin:miter;stroke-opacity:1"
       d="m 516.20063,496.49495 4.9711,5.22284 c 0,0 1.80362,-0.27195 2.22747,-2.72343 0.42385,-2.45157 -0.84398,-4.62707 -0.84398,-4.62707 z"
       id="path4337"
       inkscape:connector-curvature="0" />
    <path
       sodipodi:nodetypes="ccccccccccc"
       inkscape:transform-center-y="25.381146"
       inkscape:transform-center-x="-27.929608"
       inkscape:connector-curvature="0"
       id="path4339"
       d="m 415.12251,485.47834 c -9.0788,-1.0555 -18.08197,-1.9446 -25.35638,0.96955 -8.80855,8.53032 -9.51645,13.01032 -8.8658,16.81104 l 42.30178,44.81333 18.33792,13.36752 53.81063,39.7396 10.11696,-11.05703 -45.48933,-42.4077 -18.73656,-17.21357 -2.63859,-19.72722 z"
       style="fill:#000000;fill-rule:evenodd;stroke:none;stroke-width:1px;stroke-linecap:butt;stroke-linejoin:miter;stroke-opacity:1" />
    <path
       sodipodi:nodetypes="ccc"
       inkscape:connector-curvature="0"
       id="path4341"
       d="m 515.42391,529.81822 -7.84014,-3.39713 -2.23211,-3.75698"
       style="fill:none;fill-rule:evenodd;stroke:#000000;stroke-width:1px;stroke-linecap:butt;stroke-linejoin:miter;stroke-opacity:1"
       inkscape:transform-center-x="-53.834038"
       inkscape:transform-center-y="-1.9547147" />
    <path
       sodipodi:nodetypes="ccccccccccc"
       inkscape:connector-curvature="0"
       id="path4343"
       d="m 337.39143,789.30098 3.05491,16.73548 63.1448,2.96706 1.78479,-7.14004 -15.72577,-6.11558 -12.57027,-8.49974 -10.97443,-8.0865 -0.59738,-3.12994 -21.38249,-2.38041 -1.71611,10.86151 z"
       style="fill:#000000;fill-rule:evenodd;stroke:none;stroke-width:1px;stroke-linecap:butt;stroke-linejoin:miter;stroke-opacity:1" />
    <path
       inkscape:connector-curvature="0"
       id="path4451"
       d="m 406.69471,455.83661 c 36.72394,-9.49583 36.58184,-1.67441 36.58184,-1.67441 l -4.21285,5.59214 c 0,0 0.96593,-6.52607 -36.26338,2.57238 -37.22929,9.09845 -75.11244,0.93343 -75.11244,0.93343 l 1.40596,-4.96134 c 0,0 40.87694,7.03359 77.60087,-2.4622 z"
       style="fill:#1a1a1a;fill-opacity:1;fill-rule:evenodd;stroke:none;stroke-width:1px;stroke-linecap:butt;stroke-linejoin:miter;stroke-opacity:1"
       sodipodi:nodetypes="sccsccs" />
    <path
       style="fill:#00000e;fill-opacity:1;fill-rule:evenodd;stroke:none;stroke-width:1px;stroke-linecap:butt;stroke-linejoin:miter;stroke-opacity:1"
       d="m 445.1506,464.46295 c 0,0 -21.40396,-19.71648 -86.00473,-14.06874 -64.60081,5.64773 -60.86934,-3.65823 -60.86934,-3.65823 l 2.52602,-4.62877 c 0,0 -3.49014,8.83179 61.69793,3.84851 65.18806,-4.98329 92.372,15.73393 92.372,15.73393 l -9.83762,3.44086"
       id="path4449"
       inkscape:connector-curvature="0"
       sodipodi:nodetypes="csccscc" />
    <path
       style="fill:#000000;fill-rule:evenodd;stroke:none;stroke-width:1px;stroke-linecap:butt;stroke-linejoin:miter;stroke-opacity:1"
       d="m 527.12856,478.70791 -8.45341,-27.6581 c 0,0 -6.35291,-15.19175 -27.62136,-20.71602 -21.26845,-5.52427 -42.45354,-0.7916 -52.9423,7.47769 -17.49217,13.79075 -8.45665,44.59156 -8.45665,44.59156 0,0 9.75084,22.66188 16.87118,31.95394 7.12034,9.29206 21.32218,24.54526 21.32218,24.54526 l 33.50261,9.61886 12.29291,-11.43575 1.78019,-7.26713 4.38867,-7.45432 7.76161,1.39362 1.35733,-2.48854 -1.52337,-13.00196 -26.27444,-14.07464 0.90315,-2.99831 27.03835,-0.15717 0.58935,-4.79047 z"
       id="path4443"
       inkscape:connector-curvature="0"
       sodipodi:nodetypes="ccsscsccccccccccccc" />
    <path
       style="fill:#000000;fill-rule:evenodd;stroke:none;stroke-width:1px;stroke-linecap:butt;stroke-linejoin:miter;stroke-opacity:1"
       d="m 496.16374,600.06703 4.28131,4.55753 4.41942,-1.10486 4.55752,-4.00509 3.72889,-4.69563 -5.66238,-4.97185 z"
       id="path4457"
       inkscape:connector-curvature="0" />
  </g>
</svg>
